<?xml version="1.0" standalone="no"?>
<!DOCTYPE svg PUBLIC "-//W3C//DTD SVG 20010904//EN"
 "http://www.w3.org/TR/2001/REC-SVG-20010904/DTD/svg10.dtd">
<svg version="1.0" xmlns="http://www.w3.org/2000/svg"
 width="520.000000pt" height="520.000000pt" viewBox="0 0 520.000000 520.000000"
 preserveAspectRatio="xMidYMid meet">
<metadata>
Created by potrace 1.11, written by Peter Selinger 2001-2013
</metadata>
<g transform="translate(0.000000,520.000000) scale(0.100000,-0.100000)"
fill="#000000" stroke="none">
<path d="M353 5175 c-166 -45 -285 -165 -328 -332 -13 -50 -15 -339 -15 -2258
0 -1447 4 -2215 11 -2244 29 -127 125 -248 243 -306 l71 -35 2285 2 2285 3 59
29 c75 37 165 127 202 202 l29 59 3 2285 2 2285 -35 71 c-58 118 -179 214
-306 243 -29 7 -796 10 -2249 10 -1865 0 -2213 -2 -2257 -14z m1548 -1335
c120 -25 252 -74 358 -133 42 -23 79 -44 84 -45 4 -2 5 37 1 87 l-7 91 92 0
91 0 0 -405 0 -405 -60 0 c-54 0 -60 2 -64 23 -46 245 -106 369 -240 494 -73
69 -191 132 -296 160 -92 24 -301 23 -395 -1 -343 -90 -590 -378 -681 -796
-15 -69 -19 -127 -19 -310 0 -211 2 -231 27 -331 133 -523 536 -837 1011 -788
251 26 479 136 641 311 40 43 76 78 80 78 4 0 25 -14 46 -31 l39 -32 -45 -57
c-147 -187 -321 -309 -547 -385 -139 -46 -256 -65 -407 -65 -337 0 -616 113
-840 340 -256 258 -377 613 -349 1020 10 140 30 243 74 376 155 466 509 766
973 823 112 14 314 5 433 -19z m1997 -30 c464 -49 685 -245 670 -596 -4 -86
-9 -110 -36 -168 -84 -179 -236 -297 -453 -349 -49 -12 -89 -25 -89 -28 0 -3
48 -9 108 -12 221 -12 378 -73 503 -197 123 -121 169 -236 169 -421 0 -124
-18 -206 -64 -297 -108 -210 -326 -345 -621 -381 -55 -7 -297 -11 -627 -11
l-538 0 0 54 c0 59 -2 58 75 71 88 15 140 74 155 176 6 36 11 488 13 1045 2
867 0 980 -13 978 -8 -2 -63 -5 -122 -8 l-108 -5 0 74 0 74 138 4 c338 7 755
6 840 -3z"/>
<path d="M3639 3690 c-89 -16 -133 -53 -160 -135 -9 -29 -13 -154 -16 -449
l-5 -409 194 6 c248 6 329 28 434 113 191 155 231 549 73 728 -45 51 -148 107
-243 131 -73 18 -217 27 -277 15z"/>
<path d="M3478 2563 c-16 -4 -18 -43 -20 -536 -2 -293 -1 -534 0 -537 2 -3
117 -5 255 -5 282 0 323 6 455 71 128 63 218 173 253 314 19 76 16 258 -6 340
-36 136 -118 234 -247 295 -116 54 -194 65 -450 64 -123 -1 -231 -3 -240 -6z"/>
</g>
</svg>
